# xmcd CD database file
#
# Track frame offsets:
#	150
#	28370
#	56683
#	86400
#	116300
#	141650
#	176410
#	209852
#	233897
#	252293
#
# Disc length: 3716 seconds
#
# Revision: 2
# Processed by: cddbd v1.5PL3 Copyright (c) Steve Scherf et al.
# Submitted via: CDex 1.51
#
DISCID=940e820a
DTITLE=Joey DeFrancesco - Ballads and Blues
DYEAR=2002
DGENRE=Jazz
TTITLE0=Get It All
TTITLE1=These Are Soulful Days
TTITLE2=Take The Coltrane
TTITLE3=You Don't Know What Love Is
TTITLE4=Jammin' In The Basement
TTITLE5=Home On The Range
TTITLE6=Ceora
TTITLE7=Basin Street Blues
TTITLE8=Mama Don't Allow No
TTITLE9=That's All
EXTD=Hammond B-3 YEAR: 2002
EXTT0=
EXTT1=
EXTT2=
EXTT3=
EXTT4=
EXTT5=
EXTT6=
EXTT7=
EXTT8=
EXTT9=
PLAYORDER=
